<svg width="1000" height="270" viewBox="0 0 1000 270" fill="none" xmlns="http://www.w3.org/2000/svg">
  <defs>
    <linearGradient id="bg" x1="0" y1="0" x2="1000" y2="270" gradientUnits="userSpaceOnUse">
      <stop stop-color="#020617"/>
      <stop offset="0.52" stop-color="#050816"/>
      <stop offset="1" stop-color="#0B1120"/>
    </linearGradient>
    <linearGradient id="accent" x1="70" y1="56" x2="930" y2="246" gradientUnits="userSpaceOnUse">
      <stop stop-color="#22D3EE"/>
      <stop offset="0.52" stop-color="#60A5FA"/>
      <stop offset="1" stop-color="#A78BFA"/>
    </linearGradient>
    <radialGradient id="haze" cx="0" cy="0" r="1" gradientUnits="userSpaceOnUse" gradientTransform="translate(760 76) rotate(115) scale(170 430)">
      <stop stop-color="#2563EB" stop-opacity="0.18"/>
      <stop offset="0.58" stop-color="#0EA5E9" stop-opacity="0.06"/>
      <stop offset="1" stop-color="#020617" stop-opacity="0"/>
    </radialGradient>
    <pattern id="grid" width="30" height="30" patternUnits="userSpaceOnUse">
      <path d="M30 0H0V30" stroke="#1E293B" stroke-width="1" opacity="0.38"/>
    </pattern>
  </defs>

  <rect width="1000" height="270" fill="url(#bg)"/>
  <path d="M0.5 0V270M999.5 0V270" stroke="#1E293B"/>
  <rect width="1000" height="270" fill="url(#grid)" opacity="0.2"/>
  <rect width="1000" height="270" fill="url(#haze)"/>

  <path d="M58 66H205L235 96H330" stroke="url(#accent)" stroke-width="1.2" opacity="0.72"/>
  <path d="M942 222H795L765 192H670" stroke="url(#accent)" stroke-width="1.2" opacity="0.72"/>
  <path d="M70 242H930" stroke="#1E293B"/>
  <path d="M70 34H930" stroke="#1E293B"/>

  <rect x="58" y="52" width="188" height="44" fill="#0F172A" fill-opacity="0.34" stroke="#1E293B"/>
  <text x="82" y="80" fill="#E0F2FE" font-family="Consolas, Menlo, monospace" font-size="18" font-weight="700" letter-spacing="2">关于我</text>
  <text x="876" y="80" text-anchor="end" fill="#64748B" font-family="Consolas, Menlo, monospace" font-size="12">yubai314 / 主页记录</text>

  <g font-family="Segoe UI, Noto Sans SC, Arial, sans-serif" font-size="18" font-weight="500">
    <text x="96" y="120" fill="#CBD5E1">正在学习</text>
    <text x="220" y="120" fill="#E2E8F0">Rust、TypeScript、AI 应用工程，也持续阅读哲学、社会理论与古典文本。</text>

    <text x="96" y="154" fill="#CBD5E1">正在做</text>
    <text x="220" y="154" fill="#E2E8F0">个人网站、ShadowMixer、NexusReader，以及把想法落成工具的长期实验。</text>

    <text x="96" y="188" fill="#CBD5E1">写作记录</text>
    <text x="220" y="188" fill="#E2E8F0">技术实践、项目复盘、阅读摘抄，和关于社会、心理与文化的随笔。</text>

    <text x="96" y="222" fill="#CBD5E1">可以聊</text>
    <text x="220" y="222" fill="#E2E8F0">Web 工程、AI 工具、信息分析、开源项目、写作系统。</text>
  </g>

  <g font-family="Consolas, Menlo, monospace" font-size="13">
    <text x="96" y="252" fill="#67E8F9">联系 / GitHub</text>
    <text x="260" y="252" fill="#93C5FD">个人网站 / yubai314.github.io/yubai314</text>
  </g>

  <circle cx="70" cy="114" r="3.5" fill="#22D3EE"/>
  <circle cx="70" cy="148" r="3.5" fill="#60A5FA"/>
  <circle cx="70" cy="182" r="3.5" fill="#A78BFA"/>
  <circle cx="70" cy="216" r="3.5" fill="#67E8F9"/>
</svg>
