<svg width="1000" height="88" viewBox="0 0 1000 88" fill="none" xmlns="http://www.w3.org/2000/svg">
  <defs>
    <linearGradient id="panel" x1="0" y1="0" x2="1000" y2="88" gradientUnits="userSpaceOnUse">
      <stop stop-color="#020617"/>
      <stop offset="0.52" stop-color="#050816"/>
      <stop offset="1" stop-color="#0B1120"/>
    </linearGradient>
    <linearGradient id="accent" x1="140" y1="72" x2="860" y2="72" gradientUnits="userSpaceOnUse">
      <stop stop-color="#22D3EE"/>
      <stop offset="0.5" stop-color="#60A5FA"/>
      <stop offset="1" stop-color="#C084FC"/>
    </linearGradient>
    <radialGradient id="haze" cx="0" cy="0" r="1" gradientUnits="userSpaceOnUse" gradientTransform="translate(500 66) rotate(90) scale(82 420)">
      <stop stop-color="#38BDF8" stop-opacity="0.16"/>
      <stop offset="1" stop-color="#020617" stop-opacity="0"/>
    </radialGradient>
    <pattern id="grid" width="30" height="30" patternUnits="userSpaceOnUse">
      <path d="M30 0H0V30" stroke="#1E293B" stroke-width="1" opacity="0.38"/>
    </pattern>
  </defs>

  <rect width="1000" height="88" fill="url(#panel)"/>
  <path d="M0.5 0V88M999.5 0V88" stroke="#1E293B"/>
  <path d="M0.5 80V88H999.5V80Z" fill="#050816"/>
  <rect width="1000" height="88" fill="url(#grid)" opacity="0.2"/>
  <rect width="1000" height="88" fill="url(#haze)"/>

  <rect x="44" y="18" width="158" height="36" fill="#0F172A" fill-opacity="0.32" stroke="#1E293B"/>
  <rect x="798" y="18" width="158" height="36" fill="#0F172A" fill-opacity="0.32" stroke="#1E293B"/>
  <path d="M68 34H178M822 34H932" stroke="#67E8F9" stroke-opacity="0.46"/>
  <path d="M68 44H142M858 44H932" stroke="#A78BFA" stroke-opacity="0.34"/>

  <text x="500" y="32" text-anchor="middle" fill="#E0F2FE" font-family="Consolas, Menlo, monospace" font-size="20" font-weight="700" letter-spacing="3">
    数据仓
  </text>
  <text x="500" y="56" text-anchor="middle" fill="#67E8F9" font-family="Consolas, Menlo, monospace" font-size="13">
    主页数据流 / 提交脉冲 / 语言光谱
  </text>
  <path d="M140 72H860" stroke="url(#accent)" stroke-width="1.4"/>
  <path d="M252 78H748" stroke="#334155" stroke-width="1"/>
</svg>
